<svg width="13" height="16" viewBox="0 0 13 16" fill="none" xmlns="http://www.w3.org/2000/svg">
<path d="M3.95301 11.6581V11.4581H3.75301H1.72632C1.55078 11.4581 1.40576 11.3139 1.40576 11.1347V1.73034C1.40576 1.55113 1.55078 1.40689 1.72632 1.40689H8.06512C8.24066 1.40689 8.38569 1.55113 8.38569 1.73034V3.84634V4.04634H8.58569H8.79144H8.99144V3.84634V1.73034C8.99144 1.21799 8.57733 0.8 8.06512 0.8H1.72632C1.21411 0.8 0.8 1.21799 0.8 1.73034V11.1347C0.8 11.647 1.21411 12.065 1.72632 12.065H3.75301H3.95301V11.865V11.6581Z" stroke="#00C4B8" stroke-width="0.4"/>
<path d="M4.92163 15.1998H11.2604C11.7726 15.1998 12.1868 14.7818 12.1868 14.2695V4.8651C12.1868 4.35276 11.7726 3.93477 11.2604 3.93477H4.92163C4.40942 3.93477 3.99531 4.35276 3.99531 4.8651V14.2695C3.99531 14.7818 4.40942 15.1998 4.92163 15.1998ZM4.60107 4.8651C4.60107 4.6859 4.7461 4.54166 4.92163 4.54166H11.2604C11.436 4.54166 11.581 4.6859 11.581 4.8651V14.2695C11.581 14.4487 11.436 14.5929 11.2604 14.5929H4.92163C4.7461 14.5929 4.60107 14.4487 4.60107 14.2695V4.8651Z" stroke="#00C4B8" stroke-width="0.4"/>
</svg>
