<svg width="94" height="21" viewBox="0 0 94 21" fill="none" xmlns="http://www.w3.org/2000/svg">
<path fill-rule="evenodd" clip-rule="evenodd" d="M5.52459 6.63995C5.4347 11.2349 5.34485 15.8294 5.25537 20.4244H6.7978C6.75638 17.8098 6.7151 15.1955 6.67381 12.5811C6.64738 10.9075 6.62095 9.23392 6.59448 7.56029C6.2202 7.32582 5.86056 7.01904 5.52459 6.63995Z" fill="#EC9B76"/>
<path fill-rule="evenodd" clip-rule="evenodd" d="M9.43417 3.43486C9.43417 4.06158 9.26632 4.64911 8.97312 5.15492C9.26654 4.64897 9.43453 4.06122 9.43453 3.43424C9.43453 2.61994 9.15117 1.87182 8.67768 1.28311C8.71131 1.28207 8.74507 1.28155 8.77895 1.28155C10.567 1.28155 12.0165 2.73106 12.0165 4.51911C12.0165 6.30717 10.567 7.75667 8.77895 7.75667C8.76087 7.75667 8.74283 7.75652 8.72483 7.75623C9.16964 8.33529 9.43407 9.06016 9.43407 9.84678C9.43407 11.7438 7.89623 13.2816 5.99921 13.2816C4.90392 13.2816 3.92836 12.769 3.2994 11.9705C4.461 11.9487 5.47295 11.3151 6.02654 10.3785C5.46309 11.3316 4.42497 11.9708 3.23756 11.9708C1.4495 11.9708 0 10.5213 0 8.73328C0 7.92875 0.293458 7.19276 0.779172 6.62651C0.293458 6.06026 0 5.32426 0 4.51973C0 2.73168 1.4495 1.28217 3.23756 1.28217C3.26569 1.28217 3.29373 1.28253 3.32169 1.28325C3.95127 0.50075 4.91681 0 5.99931 0C7.89633 0 9.43417 1.53784 9.43417 3.43486ZM5.86299 6.41458C5.90818 6.41282 5.95359 6.41193 5.99921 6.41193C6.4345 6.41193 6.85088 6.4929 7.23411 6.6406C7.23437 6.6405 7.23463 6.6404 7.23489 6.6403C6.85153 6.49248 6.43499 6.41145 5.99952 6.41145C5.95392 6.41145 5.90852 6.41234 5.86334 6.4141L5.86376 6.41351C5.86963 6.40539 5.87546 6.39723 5.88126 6.38905L5.86376 6.41351C5.8635 6.41387 5.86325 6.41422 5.86299 6.41458ZM8.77942 11.971C8.75278 11.971 8.72621 11.9707 8.69972 11.97C9.15995 11.3856 9.43452 10.6482 9.43452 9.84659C9.43452 9.0604 9.17038 8.33589 8.72601 7.75698C8.74378 7.75727 8.76158 7.75741 8.77942 7.75741C9.76294 7.75741 10.644 7.31886 11.2378 6.62664C11.7235 7.19289 12.017 7.92889 12.017 8.73342C12.017 10.5215 10.5675 11.971 8.77942 11.971Z" fill="#00C4B8"/>
<g clip-path="url(#clip0_836_1963)">
<path d="M19.5225 17.5786C19.8617 17.4393 20.0225 17.1571 20.0225 16.6V3.76071C20.0225 3.38214 19.8225 3.2 19.5617 3.2C19.401 3.2 19.2225 3.26071 19.0617 3.4L19.0225 3.2C19.6439 2.32143 20.9832 2 22.1617 2C22.7617 2 23.2617 2.13929 23.6403 2.4H26.7796C30.5403 2.4 33.301 3.32143 33.301 6.27857C33.301 8.03929 32.3403 9.07857 30.7796 9.61786V9.69643C32.7189 10.1964 33.7189 11.5964 33.7189 13.375C33.7189 16.3357 31.7403 17.9964 27.5796 17.9964C26.1796 17.9964 24.501 17.2571 23.6796 16.2571C22.7403 17.3357 21.0403 17.7964 19.5796 17.7964L19.5189 17.575L19.5225 17.5786ZM24.3832 14.3786C24.3832 14.9786 24.2439 15.4786 23.9617 15.9C24.7617 16.6214 25.8403 16.9214 26.7832 16.9214C28.7046 16.9214 29.3617 15.4821 29.3617 13.4214C29.3617 11.3607 28.301 10.2429 25.5832 10.2429H24.3832V14.3821V14.3786ZM26.1832 9.15714C27.9046 9.15714 28.9439 8.17857 28.9439 6.31786C28.9439 4.45714 27.9046 3.47857 26.1832 3.47857H24.3439C24.3653 3.6 24.3832 3.71786 24.3832 3.85714V9.15714H26.1832Z" fill="#00C4B8"/>
<path d="M47.2437 14.8784C47.1652 14.757 47.083 14.6999 47.0437 14.6999C46.983 14.6999 46.9437 14.7999 46.9044 15.0392C46.683 16.4784 45.183 17.9999 41.2652 17.9999C37.0866 17.9999 35.0259 15.7392 35.0259 12.0213C35.0259 8.30344 37.3045 6.04272 41.0652 6.04272C44.8259 6.04272 47.1044 8.00344 47.1044 11.5213C47.1044 12.1213 46.783 12.4606 46.2044 12.4606H39.2259C39.2652 15.5999 39.8473 16.9213 41.0652 16.9213C42.0866 16.9213 42.7652 16.1606 42.8259 15.082C42.8866 14.1213 43.6866 13.4034 45.0259 13.4034C46.1044 13.4034 46.9652 13.8427 47.3652 14.782L47.2437 14.882V14.8784ZM42.9045 11.3784C42.883 8.21772 42.3259 7.11772 41.0652 7.11772C39.8866 7.11772 39.2866 8.37844 39.2259 11.3784H42.9045Z" fill="#00C4B8"/>
<path d="M55.5617 17.7999C51.001 17.7999 49.5617 16.8606 49.5617 13.6999V7.72131H48.6403C48.0403 7.72131 47.7617 7.24273 47.7617 6.64273H49.5617V4.76059C49.5617 4.38202 49.3617 4.19988 49.101 4.19988C48.9403 4.19988 48.7617 4.26059 48.601 4.39988L48.5617 4.19988C49.1831 3.32131 50.3224 2.99988 51.501 2.99988C52.8224 2.99988 53.7224 3.67845 53.7224 4.86059V6.63916H55.801C55.801 7.23916 55.5224 7.71773 54.9224 7.71773H53.7224V14.6963C53.7224 16.157 54.1224 17.3177 55.5617 17.3177V17.7963V17.7999Z" fill="#00C4B8"/>
<path d="M57.001 17.5785C57.3403 17.4392 57.501 17.1571 57.501 16.5999V7.96065C57.501 7.58207 57.301 7.39993 57.0403 7.39993C56.8795 7.39993 56.701 7.46065 56.5403 7.59993L56.501 7.39993C57.1224 6.52136 58.3617 6.19993 59.5403 6.19993C60.7188 6.19993 61.5188 6.99993 61.5795 8.1785H61.6581C62.1367 7.21779 62.9974 5.95707 64.7974 6.03922C67.3581 6.16065 67.8581 9.6785 64.9974 10.9178C65.1974 9.55707 64.676 8.31779 63.476 8.31779C62.4545 8.31779 61.6545 8.95707 61.6545 12.0178V14.3785C61.6545 16.7999 59.1938 17.7999 57.0545 17.7999L56.9938 17.5785H57.001Z" fill="#00C4B8"/>
<path d="M79.8829 14.8784C79.8043 14.757 79.7222 14.6999 79.6829 14.6999C79.6222 14.6999 79.5829 14.7999 79.5436 15.0392C79.3222 16.4784 77.8222 17.9999 73.9043 17.9999C69.7258 17.9999 67.665 15.7392 67.665 12.0213C67.665 8.30344 69.9436 6.04272 73.7043 6.04272C77.465 6.04272 79.7436 8.00344 79.7436 11.5213C79.7436 12.1213 79.4222 12.4606 78.8436 12.4606H71.865C71.9043 15.5999 72.4865 16.9213 73.7043 16.9213C74.7258 16.9213 75.4043 16.1606 75.465 15.082C75.5258 14.1213 76.3258 13.4034 77.665 13.4034C78.7436 13.4034 79.6043 13.8427 80.0043 14.782L79.8829 14.882V14.8784ZM75.5436 11.3784C75.5222 8.21772 74.965 7.11772 73.7043 7.11772C72.5258 7.11772 71.9258 8.37844 71.865 11.3784H75.5436Z" fill="#00C4B8"/>
<path d="M93.1221 14.8784C93.0436 14.757 92.9614 14.6999 92.9221 14.6999C92.8614 14.6999 92.8222 14.7999 92.7829 15.0392C92.5614 16.4784 91.0614 17.9999 87.1436 17.9999C82.965 17.9999 80.9043 15.7392 80.9043 12.0213C80.9043 8.30344 83.1829 6.04272 86.9436 6.04272C90.7043 6.04272 92.9829 8.00344 92.9829 11.5213C92.9829 12.1213 92.6614 12.4606 92.0829 12.4606H85.1043C85.1436 15.5999 85.7257 16.9213 86.9436 16.9213C87.965 16.9213 88.6436 16.1606 88.7043 15.082C88.765 14.1213 89.565 13.4034 90.9043 13.4034C91.9829 13.4034 92.8436 13.8427 93.2436 14.782L93.1221 14.882V14.8784ZM88.7829 11.3784C88.7614 8.21772 88.2043 7.11772 86.9436 7.11772C85.765 7.11772 85.165 8.37844 85.1043 11.3784H88.7829Z" fill="#00C4B8"/>
</g>
<defs>
<clipPath id="clip0_836_1963">
<rect width="74.2178" height="16" fill="white" transform="translate(19.0225 2)"/>
</clipPath>
</defs>
</svg>
