<svg width="12" height="11" viewBox="0 0 12 11" fill="none" xmlns="http://www.w3.org/2000/svg">
<path d="M5.76224 0.540779C5.83707 0.310452 6.16293 0.310451 6.23776 0.540779L7.22158 3.56864C7.32198 3.87766 7.60995 4.08688 7.93487 4.08688H11.1186C11.3607 4.08688 11.4614 4.39678 11.2655 4.53913L8.68985 6.41046C8.42698 6.60144 8.31699 6.93997 8.41739 7.24898L9.4012 10.2768C9.47604 10.5072 9.21242 10.6987 9.01649 10.5564L6.44084 8.68503C6.17797 8.49405 5.82203 8.49405 5.55916 8.68503L2.98351 10.5564C2.78758 10.6987 2.52396 10.5072 2.5988 10.2768L3.58261 7.24898C3.68301 6.93997 3.57302 6.60144 3.31015 6.41046L0.734499 4.53913C0.538571 4.39678 0.639264 4.08688 0.881446 4.08688H4.06513C4.39005 4.08688 4.67802 3.87766 4.77842 3.56864L5.76224 0.540779Z" stroke="#6D6D6D" stroke-width="0.5"/>
</svg>
