<svg width="32" height="32" viewBox="0 0 32 32" fill="none" xmlns="http://www.w3.org/2000/svg">
<circle cx="16" cy="16" r="15.75" fill="white" stroke="#47D5CC" stroke-width="0.5"/>
<path fill-rule="evenodd" clip-rule="evenodd" d="M23.7567 10.4525C24.0961 10.0856 24.3035 9.59522 24.3035 9.05613C24.3035 7.92082 23.3827 7 22.2474 7C21.6476 7 21.1078 7.25684 20.7324 7.66609C20.3564 7.25684 19.8173 7 19.2175 7C18.0822 7 17.1614 7.92082 17.1614 9.05613C17.1614 9.59522 17.3688 10.0856 17.7082 10.4525C17.3688 10.8194 17.1614 11.3098 17.1614 11.8489C17.1614 12.388 17.3582 12.853 17.6814 13.2157C17.3575 13.5791 17.1614 14.0582 17.1614 14.5824C17.1614 15.1067 17.3695 15.614 17.7103 15.9809C17.3695 16.3479 17.1614 16.8397 17.1614 17.3795C17.1614 18.5148 18.0822 19.4356 19.2175 19.4356C19.6098 19.4356 19.9767 19.3248 20.2886 19.1343C20.2216 21.1446 20.1567 23.1852 20.0791 24.9993H21.3858C21.3117 23.0419 21.2377 21.0839 21.1643 19.1265C21.479 19.322 21.8501 19.4356 22.2481 19.4356C23.3834 19.4356 24.3042 18.5148 24.3042 17.3795C24.3042 16.839 24.0961 16.3479 23.7553 15.9809C24.0961 15.614 24.3042 15.1222 24.3042 14.5824C24.3042 14.0427 24.1074 13.5784 23.7842 13.2157C24.1081 12.8523 24.3042 12.3732 24.3042 11.8489C24.3042 11.3247 24.0968 10.8194 23.7574 10.4525H23.7567ZM20.7317 10.4462C20.7317 10.4462 20.7353 10.4504 20.7374 10.4525C20.7353 10.4546 20.7339 10.4568 20.7317 10.4589C20.7296 10.4568 20.7282 10.4546 20.7261 10.4525C20.7282 10.4504 20.7296 10.4483 20.7317 10.4462Z" fill="#47D5CC"/>
<path fill-rule="evenodd" clip-rule="evenodd" d="M13.6891 9.77587C13.663 9.77587 13.6376 9.77587 13.6115 9.77729C13.6136 9.7794 13.6151 9.78223 13.6172 9.78434C13.1374 9.18387 12.3993 8.79932 11.5716 8.79932C10.7439 8.79932 10.0108 9.18105 9.53171 9.77729C9.5423 9.77729 9.55359 9.7787 9.56417 9.7787C9.53242 9.77729 9.49996 9.77658 9.4675 9.77658C8.10427 9.77587 7 10.8801 7 12.2427C7 12.8558 7.22438 13.4161 7.59483 13.8479C7.22438 14.2791 7 14.84 7 15.4532C7 16.8157 8.10427 17.92 9.4668 17.92C9.49573 17.92 9.52466 17.9186 9.55359 17.9179C9.54018 17.9179 9.52748 17.9193 9.51407 17.9193C9.90921 18.421 10.4843 18.7738 11.1419 18.8824C11.0721 20.9731 11.005 23.1097 10.9246 25H12.2314C12.1544 22.9608 12.0775 20.9216 12.0006 18.8824C12.659 18.7738 13.2347 18.4202 13.6299 17.9179V17.9193C13.6489 17.9193 13.6694 17.92 13.6898 17.92C15.0524 17.92 16.1566 16.8157 16.1566 15.4532C16.1566 14.84 15.933 14.2798 15.5632 13.8479C15.5484 13.8656 15.5329 13.8832 15.5174 13.9001C15.9146 13.462 16.1573 12.8805 16.1573 12.2427C16.1573 10.8801 15.0531 9.77587 13.6906 9.77587H13.6891ZM11.3564 13.8677C11.3508 13.8606 11.3451 13.8543 11.3388 13.8479C11.3444 13.8409 11.3508 13.8345 11.3564 13.8275C11.3508 13.8345 11.3451 13.8416 11.3395 13.8479C11.3451 13.8543 11.3501 13.8613 11.3557 13.8677H11.3564ZM11.4672 13.6856C11.463 13.6913 11.458 13.6969 11.4538 13.7033C11.4693 13.6828 11.4841 13.6616 11.4982 13.6405C11.4877 13.6553 11.4778 13.6708 11.4665 13.6856H11.4672ZM12.5122 13.8578C12.5122 13.8578 12.5065 13.8557 12.5044 13.855C12.5073 13.8557 12.5101 13.8571 12.5129 13.8578H12.5122ZM13.6489 14.7088C13.6489 14.7088 13.6524 14.7137 13.6546 14.7158L13.6482 14.7081C13.6623 14.7081 13.6757 14.7088 13.6898 14.7088C13.6764 14.7088 13.663 14.7088 13.6496 14.7088H13.6489Z" fill="#47D5CC"/>
</svg>
