<svg width="307" height="98" viewBox="0 0 307 98" fill="none" xmlns="http://www.w3.org/2000/svg">
<g filter="url(#filter0_d_793_1787)">
<rect x="10" y="10" width="78" height="78" rx="20" fill="white"/>
</g>
<path fill-rule="evenodd" clip-rule="evenodd" d="M47.6336 38.0541C47.3582 52.1356 47.0828 66.2157 46.8086 80.2976H51.5355C51.4086 72.2851 51.2821 64.2731 51.1555 56.2611C51.0745 51.1322 50.9935 46.0034 50.9124 40.8745C49.7654 40.1559 48.6633 39.2158 47.6336 38.0541Z" fill="url(#paint0_linear_793_1787)"/>
<path fill-rule="evenodd" clip-rule="evenodd" d="M59.6156 28.2319C59.6156 30.0086 59.1754 31.6825 58.3981 33.1505C59.176 31.6821 59.6166 30.0075 59.6166 28.23C59.6166 25.7345 58.7482 23.4418 57.2971 21.6377C57.4002 21.6345 57.5037 21.6329 57.6076 21.6329C63.0872 21.6329 67.5294 26.075 67.5294 31.5547C67.5294 37.0343 63.0872 41.4765 57.6076 41.4765C57.5522 41.4765 57.4969 41.476 57.4418 41.4751C58.8049 43.2497 59.6153 45.4711 59.6153 47.8818C59.6153 53.6954 54.9024 58.4082 49.0889 58.4082C45.7322 58.4082 42.7425 56.8371 40.815 54.3902C43.6529 54.3368 46.1993 53.0919 47.9749 51.1349C46.1597 53.1351 43.5392 54.3912 40.6254 54.3912C35.1457 54.3912 30.7036 49.949 30.7036 44.4694C30.7036 42.0038 31.6029 39.7483 33.0915 38.013C31.6029 36.2777 30.7036 34.0221 30.7036 31.5566C30.7036 26.0769 35.1457 21.6348 40.6254 21.6348C40.7116 21.6348 40.7976 21.6359 40.8834 21.6381C42.8128 19.24 45.7717 17.7055 49.0891 17.7055C54.9027 17.7055 59.6156 22.4183 59.6156 28.2319ZM48.6712 37.3635C48.8098 37.3581 48.949 37.3554 49.0889 37.3554C50.4228 37.3554 51.6989 37.6035 52.8733 38.0562C52.8741 38.0558 52.8749 38.0555 52.8758 38.0552C51.701 37.6022 50.4245 37.3539 49.09 37.3539C48.9502 37.3539 48.8111 37.3567 48.6726 37.3621C49.0964 36.7755 49.4576 36.1408 49.7465 35.4677C49.4573 36.1414 49.0956 36.7766 48.6712 37.3635ZM57.6087 54.3916C57.5271 54.3916 57.4458 54.3906 57.3647 54.3886C58.7751 52.5977 59.6166 50.3377 59.6166 47.8812C59.6166 45.4719 58.8071 43.2516 57.4453 41.4774C57.4996 41.4783 57.5541 41.4788 57.6087 41.4788C60.6228 41.4788 63.323 40.1348 65.1426 38.0134C66.6312 39.7487 67.5305 42.0042 67.5305 44.4698C67.5305 49.9495 63.0884 54.3916 57.6087 54.3916Z" fill="#40E1BF"/>
<g clip-path="url(#clip0_793_1787)">
<path d="M115.3 68.5113C116.183 68.1491 116.6 67.4154 116.6 65.9666V32.5787C116.6 31.5942 116.08 31.1205 115.402 31.1205C114.984 31.1205 114.52 31.2784 114.102 31.6406L114 31.1205C115.616 28.8359 119.099 28 122.164 28C123.724 28 125.024 28.3622 126.009 29.0402H134.172C143.952 29.0402 151.131 31.4363 151.131 39.1262C151.131 43.7049 148.632 46.4075 144.574 47.8099V48.0142C149.617 49.3144 152.217 52.9551 152.217 57.5801C152.217 65.2793 147.072 69.5979 136.252 69.5979C132.612 69.5979 128.247 67.6755 126.111 65.075C123.668 67.8798 119.247 69.0779 115.449 69.0779L115.291 68.502L115.3 68.5113ZM127.94 60.1899C127.94 61.7502 127.578 63.0504 126.844 64.1463C128.925 66.0223 131.73 66.8025 134.181 66.8025C139.178 66.8025 140.887 63.0597 140.887 57.7009C140.887 52.3421 138.128 49.4352 131.061 49.4352H127.94V60.1992V60.1899ZM132.621 46.6118C137.098 46.6118 139.8 44.0671 139.8 39.2284C139.8 34.3897 137.098 31.845 132.621 31.845H127.838C127.894 32.1607 127.94 32.4672 127.94 32.8294V46.6118H132.621Z" fill="#121212"/>
<path d="M187.389 61.4898C187.184 61.1741 186.971 61.0255 186.869 61.0255C186.711 61.0255 186.609 61.2855 186.506 61.9078C185.931 65.6506 182.03 69.607 171.842 69.607C160.975 69.607 155.617 63.7281 155.617 54.06C155.617 44.3919 161.542 38.513 171.322 38.513C181.101 38.513 187.026 43.6117 187.026 52.7597C187.026 54.32 186.191 55.2023 184.686 55.2023H166.539C166.641 63.3659 168.155 66.8022 171.322 66.8022C173.978 66.8022 175.742 64.824 175.9 62.0192C176.058 59.5209 178.138 57.6542 181.621 57.6542C184.426 57.6542 186.664 58.7965 187.704 61.2391L187.389 61.4991V61.4898ZM176.105 52.3883C176.049 44.169 174.6 41.3085 171.322 41.3085C168.257 41.3085 166.696 44.5869 166.539 52.3883H176.105Z" fill="#121212"/>
<path d="M209.019 69.0869C197.159 69.0869 193.416 66.6443 193.416 58.425V42.878H191.02C189.46 42.878 188.735 41.6335 188.735 40.0732H193.416V35.1788C193.416 34.1944 192.896 33.7207 192.218 33.7207C191.8 33.7207 191.336 33.8786 190.918 34.2408L190.816 33.7207C192.432 31.436 195.394 30.6002 198.459 30.6002C201.895 30.6002 204.236 32.3648 204.236 35.4389V40.0639H209.641C209.641 41.6242 208.917 42.8687 207.356 42.8687H204.236V61.0162C204.236 64.8147 205.276 67.8331 209.019 67.8331V69.0776V69.0869Z" fill="#121212"/>
<path d="M212.761 68.5112C213.643 68.149 214.061 67.4153 214.061 65.9665V43.5004C214.061 42.516 213.541 42.0423 212.863 42.0423C212.445 42.0423 211.981 42.2002 211.563 42.5624L211.461 42.0423C213.077 39.7577 216.3 38.9218 219.364 38.9218C222.429 38.9218 224.51 41.0022 224.668 44.067H224.872C226.116 41.5687 228.355 38.2903 233.035 38.5039C239.694 38.8196 240.995 47.9677 233.555 51.1904C234.076 47.6519 232.72 44.4292 229.599 44.4292C226.943 44.4292 224.863 46.0916 224.863 54.0509V60.1898C224.863 66.4866 218.464 69.087 212.9 69.087L212.743 68.5112H212.761Z" fill="#121212"/>
<path d="M272.266 61.4898C272.061 61.1741 271.848 61.0255 271.746 61.0255C271.588 61.0255 271.485 61.2855 271.383 61.9078C270.808 65.6506 266.907 69.607 256.719 69.607C245.852 69.607 240.494 63.7281 240.494 54.06C240.494 44.3919 246.419 38.513 256.199 38.513C265.978 38.513 271.903 43.6117 271.903 52.7597C271.903 54.32 271.068 55.2023 269.563 55.2023H251.416C251.518 63.3659 253.032 66.8022 256.199 66.8022C258.855 66.8022 260.619 64.824 260.777 62.0192C260.935 59.5209 263.015 57.6542 266.498 57.6542C269.303 57.6542 271.541 58.7965 272.581 61.2391L272.266 61.4991V61.4898ZM260.981 52.3883C260.926 44.169 259.477 41.3085 256.199 41.3085C253.134 41.3085 251.573 44.5869 251.416 52.3883H260.981Z" fill="#121212"/>
<path d="M306.693 61.4898C306.489 61.1741 306.275 61.0255 306.173 61.0255C306.015 61.0255 305.913 61.2855 305.811 61.9078C305.235 65.6506 301.335 69.607 291.146 69.607C280.28 69.607 274.921 63.7281 274.921 54.06C274.921 44.3919 280.847 38.513 290.626 38.513C300.406 38.513 306.331 43.6117 306.331 52.7597C306.331 54.32 305.495 55.2023 303.991 55.2023H285.843C285.945 63.3659 287.459 66.8022 290.626 66.8022C293.282 66.8022 295.047 64.824 295.205 62.0192C295.363 59.5209 297.443 57.6542 300.926 57.6542C303.731 57.6542 305.969 58.7965 307.009 61.2391L306.693 61.4991V61.4898ZM295.409 52.3883C295.354 44.169 293.905 41.3085 290.626 41.3085C287.561 41.3085 286.001 44.5869 285.843 52.3883H295.409Z" fill="#121212"/>
</g>
<defs>
<filter id="filter0_d_793_1787" x="0" y="0" width="98" height="98" filterUnits="userSpaceOnUse" color-interpolation-filters="sRGB">
<feFlood flood-opacity="0" result="BackgroundImageFix"/>
<feColorMatrix in="SourceAlpha" type="matrix" values="0 0 0 0 0 0 0 0 0 0 0 0 0 0 0 0 0 0 127 0" result="hardAlpha"/>
<feOffset/>
<feGaussianBlur stdDeviation="5"/>
<feComposite in2="hardAlpha" operator="out"/>
<feColorMatrix type="matrix" values="0 0 0 0 0 0 0 0 0 0 0 0 0 0 0 0 0 0 0.1 0"/>
<feBlend mode="normal" in2="BackgroundImageFix" result="effect1_dropShadow_793_1787"/>
<feBlend mode="normal" in="SourceGraphic" in2="effect1_dropShadow_793_1787" result="shape"/>
</filter>
<linearGradient id="paint0_linear_793_1787" x1="49.172" y1="38.0541" x2="49.172" y2="80.2976" gradientUnits="userSpaceOnUse">
<stop stop-color="#FFD5A9"/>
<stop offset="1" stop-color="#EC9B76"/>
</linearGradient>
<clipPath id="clip0_793_1787">
<rect width="193" height="41.6072" fill="white" transform="translate(114 28)"/>
</clipPath>
</defs>
</svg>
