<svg width="40" height="68" viewBox="0 0 40 68" fill="none" xmlns="http://www.w3.org/2000/svg">
<path fill-rule="evenodd" clip-rule="evenodd" d="M18.3893 22.1018C18.0901 37.3967 17.791 52.6901 17.4932 67.9854H22.6273C22.4895 59.2825 22.3521 50.5803 22.2146 41.878C22.1267 36.3072 22.0387 30.7363 21.9506 25.1653C20.7047 24.3848 19.5076 23.3637 18.3893 22.1018Z" fill="#EC9B76"/>
<path fill-rule="evenodd" clip-rule="evenodd" d="M31.403 11.4334C31.403 13.9309 30.6022 16.2413 29.2435 18.122C30.6031 16.241 31.4045 13.9297 31.4045 11.4314C31.4045 8.72085 30.4613 6.23063 28.8852 4.27102C28.9971 4.26758 29.1095 4.26585 29.2223 4.26585C35.1741 4.26585 39.9989 9.09073 39.9989 15.0425C39.9989 20.9943 35.1741 25.8192 29.2223 25.8192C29.162 25.8192 29.1019 25.8187 29.0419 25.8177C30.5225 27.7452 31.4027 30.158 31.4027 32.7764C31.4027 39.0909 26.2838 44.2098 19.9693 44.2098C16.3234 44.2098 13.0761 42.5034 10.9826 39.8456C15.0963 39.7684 18.6462 37.3861 20.3947 33.9363C18.6168 37.4432 14.9774 39.8467 10.7767 39.8467C4.82488 39.8467 0 35.0218 0 29.07C0 26.392 0.976819 23.9421 2.59359 22.0573C0.976819 20.1724 0 17.7226 0 15.0446C0 9.09278 4.82488 4.2679 10.7767 4.2679C10.8703 4.2679 10.9637 4.2691 11.0567 4.27147C13.1524 1.66682 16.3663 0 19.9696 0C26.2841 0 31.403 5.11891 31.403 11.4334ZM19.5158 21.3518C19.6662 21.346 19.8174 21.343 19.9693 21.343C21.4182 21.343 22.8043 21.6126 24.0799 22.1042C24.0808 22.1039 24.0817 22.1036 24.0825 22.1032C22.8064 21.6112 21.4198 21.3414 19.9703 21.3414C19.8185 21.3414 19.6674 21.3444 19.517 21.3502C19.557 21.2948 19.5965 21.239 19.6355 21.1829C19.5961 21.2396 19.5562 21.2959 19.5158 21.3518ZM29.2233 39.8471C29.1347 39.8471 29.0463 39.8461 28.9583 39.8439C30.4902 37.8987 31.4042 35.444 31.4042 32.7758C31.4042 30.1588 30.525 27.7472 29.0458 25.8202C29.1048 25.8212 29.164 25.8217 29.2233 25.8217C32.497 25.8217 35.4299 24.3619 37.4063 22.0577C39.0231 23.9426 39.9999 26.3924 39.9999 29.0705C39.9999 35.0223 35.1751 39.8471 29.2233 39.8471Z" fill="#00C4B8"/>
</svg>
