<svg width="17" height="18" viewBox="0 0 17 18" fill="none" xmlns="http://www.w3.org/2000/svg">
<path d="M8.03917 0H8.03878C7.86635 0 7.72656 0.139785 7.72656 0.312218V5.29002C7.72656 5.46245 7.86635 5.60223 8.03878 5.60223H8.03917C8.21161 5.60223 8.35139 5.46245 8.35139 5.29002V0.312218C8.35139 0.139785 8.21161 0 8.03917 0Z" fill="#00A651"/>
<path d="M8.10621 1.88753C8.02954 1.8427 8.01538 1.73771 8.07751 1.6744C8.48489 1.25758 9.30397 0.550965 10.5505 0.201784C11.7911 -0.145825 12.8811 0.0209015 13.5755 0.216333C13.92 0.313065 14.0509 0.731847 13.8217 1.00632C13.4548 1.44515 12.8634 1.98937 11.9964 2.30985C10.2115 2.97007 8.61268 2.18244 8.10621 1.88753V1.88753Z" fill="#00A651"/>
<path d="M11.295 2.94868C9.89827 2.82284 9.59864 3.66906 7.67775 3.66355C5.92594 3.65844 5.50873 2.97777 4.18397 3.18146C2.72315 3.40639 1.77116 4.55617 1.41293 4.98871C-0.636539 7.46365 -0.184334 11.3687 1.05156 13.9341C1.72397 15.3301 2.64765 16.3686 3.52296 17.1208C4.18633 17.6906 5.03412 18 5.90864 18H10.6017C11.735 18 12.8097 17.481 13.5014 16.5833C14.1769 15.7068 14.858 14.5774 15.3279 13.1807C15.7655 11.8791 16.8603 8.62444 15.147 5.8015C14.893 5.38311 13.4664 3.14332 11.295 2.94789V2.94868Z" fill="#FF6C61"/>
</svg>
