<svg width="16" height="16" viewBox="0 0 16 16" fill="none" xmlns="http://www.w3.org/2000/svg">
<path d="M8 16C12.4183 16 16 12.4183 16 8C16 3.58172 12.4183 0 8 0C3.58172 0 0 3.58172 0 8C0 12.4183 3.58172 16 8 16Z" fill="#4B86FF"/>
<path d="M8.14755 0.643998C8.05535 0.791666 8.252 1.07332 8.47891 1.39819C8.89382 1.99318 9.17979 2.07818 9.26983 2.44627C9.35123 2.77834 9.2086 3.07584 9.12288 3.2552C8.6453 4.25358 7.45748 4.24494 7.299 5.06395C7.27883 5.1684 7.2457 5.33984 7.33862 5.4803C7.58209 5.84911 8.49547 5.71081 9.28784 5.59051C9.91381 5.49543 10.1558 5.39963 10.4649 5.55378C10.7271 5.68488 10.8596 5.90746 11.0166 6.17902C11.2911 6.65372 11.2803 6.88999 11.5129 7.63193C11.9286 8.95662 12.2282 9.0481 12.3219 9.06611C12.512 9.10357 12.6799 9.00416 12.731 8.97031C13.1272 8.71027 12.9745 8.13184 13.1675 7.20838C13.2208 6.9541 13.4722 5.75187 13.9397 5.7C14.2552 5.66471 14.4634 6.1747 14.9511 6.12284C15.0109 6.11636 15.1542 6.09979 15.2637 5.9939C15.4985 5.76844 15.3898 5.32111 15.3631 5.20946C15.1672 4.39837 14.4512 4.41421 13.921 3.45617C13.7539 3.15435 13.8346 3.16948 13.4794 2.38936C13.1647 1.69712 13.0156 1.49759 12.7987 1.34128C12.713 1.27933 12.3262 1.00056 11.9343 1.10213C11.7427 1.15183 11.7319 1.24548 11.5295 1.32255C11.3156 1.40395 11.0786 1.39458 10.5729 1.23035C9.95558 1.0301 9.91236 0.914843 9.43262 0.752048C9.33106 0.717472 8.31323 0.371713 8.14539 0.641837L8.14755 0.643998Z" fill="#1F4CA7"/>
<path d="M10.5751 2.31727C10.2207 2.63134 10.238 3.15214 10.2438 3.32862C10.2798 4.41344 11.3653 5.03364 11.4763 5.09415C11.7493 5.2447 12.3803 5.5919 12.9659 5.31457C13.4233 5.09847 13.5804 4.63026 13.5912 4.59712C13.862 3.74929 13.0639 2.66087 12.1383 2.27982C12.0014 2.22363 11.0988 1.85194 10.5751 2.31655V2.31727Z" fill="#4B86FF"/>
</svg>
