<svg width="14" height="18" viewBox="0 0 14 18" fill="none" xmlns="http://www.w3.org/2000/svg">
<path d="M8.7994 5.71739L11.012 1.87726C11.095 1.73319 11.0455 1.54911 10.9015 1.4661C10.7574 1.38309 10.5733 1.43259 10.4903 1.57665L8.27769 5.41678C8.19468 5.56085 8.24418 5.74493 8.38824 5.82794C8.53231 5.91095 8.71639 5.86145 8.7994 5.71739Z" fill="#00A651"/>
<path d="M9.25629 0.638577L12.3902 3.77245C12.5077 3.89002 12.6984 3.89002 12.8159 3.77245C12.9335 3.65488 12.9335 3.46426 12.8159 3.34669L9.68205 0.212814C9.56448 0.0952431 9.37386 0.0952431 9.25629 0.212814C9.13872 0.330385 9.13872 0.521006 9.25629 0.638577Z" fill="#00A651"/>
<path d="M6.90694 7.09526C8.41883 7.09526 9.64445 5.86963 9.64445 4.35775C9.64445 2.84586 8.41883 1.62024 6.90694 1.62024C5.39506 1.62024 4.16943 2.84586 4.16943 4.35775C4.16943 5.86963 5.39506 7.09526 6.90694 7.09526Z" fill="#9932FF"/>
<path d="M2.73751 9.4611C4.2494 9.4611 5.47502 8.23548 5.47502 6.72359C5.47502 5.21171 4.2494 3.98608 2.73751 3.98608C1.22562 3.98608 0 5.21171 0 6.72359C0 8.23548 1.22562 9.4611 2.73751 9.4611Z" fill="#9932FF"/>
<path d="M6.30489 11.9881C7.81678 11.9881 9.0424 10.7625 9.0424 9.25057C9.0424 7.73869 7.81678 6.51306 6.30489 6.51306C4.79301 6.51306 3.56738 7.73869 3.56738 9.25057C3.56738 10.7625 4.79301 11.9881 6.30489 11.9881Z" fill="#9932FF"/>
<path d="M10.1364 9.56364C11.6483 9.56364 12.8739 8.33802 12.8739 6.82613C12.8739 5.31425 11.6483 4.08862 10.1364 4.08862C8.62455 4.08862 7.39893 5.31425 7.39893 6.82613C7.39893 8.33802 8.62455 9.56364 10.1364 9.56364Z" fill="#9932FF"/>
<path d="M10.4001 13.8758C11.912 13.8758 13.1376 12.6502 13.1376 11.1383C13.1376 9.62638 11.912 8.40076 10.4001 8.40076C8.88822 8.40076 7.6626 9.62638 7.6626 11.1383C7.6626 12.6502 8.88822 13.8758 10.4001 13.8758Z" fill="#9932FF"/>
<path d="M2.87472 14.0942C4.3866 14.0942 5.61223 12.8685 5.61223 11.3567C5.61223 9.84477 4.3866 8.61914 2.87472 8.61914C1.36283 8.61914 0.137207 9.84477 0.137207 11.3567C0.137207 12.8685 1.36283 14.0942 2.87472 14.0942Z" fill="#9932FF"/>
<path d="M7.25069 16.6145C8.76258 16.6145 9.9882 15.3889 9.9882 13.877C9.9882 12.3652 8.76258 11.1395 7.25069 11.1395C5.73881 11.1395 4.51318 12.3652 4.51318 13.877C4.51318 15.3889 5.73881 16.6145 7.25069 16.6145Z" fill="#9932FF"/>
<path d="M2.84151 17.9999C4.3534 17.9999 5.57902 16.7743 5.57902 15.2624C5.57902 13.7505 4.3534 12.5249 2.84151 12.5249C1.32963 12.5249 0.104004 13.7505 0.104004 15.2624C0.104004 16.7743 1.32963 17.9999 2.84151 17.9999Z" fill="#9932FF"/>
</svg>
