<svg width="20" height="22" viewBox="0 0 20 22" fill="none" xmlns="http://www.w3.org/2000/svg">
<path d="M14.4665 3.19823C14.2338 3.14813 14.0504 3.23986 13.5619 3.49563C12.8487 3.86866 12.493 4.05671 12.4123 4.10446C11.4442 4.67749 10.2809 4.50248 9.66098 4.49992C7.60736 4.49118 5.39958 6.35457 4.28752 8.16771C3.39882 9.61701 2.36472 12.412 3.3828 14.1793C3.71689 14.7592 4.40306 15.4556 4.30836 16.46C4.25885 16.9901 4.01169 17.3941 4.24171 17.8449C4.48036 18.3114 5.03641 18.4487 5.14951 18.4767C5.79248 18.6357 6.15126 18.1328 7.00302 17.8435C7.79657 17.5738 8.36507 17.6797 8.92893 17.6828C11.2698 17.6965 13.5375 15.9412 13.6925 15.8185C14.2031 15.4147 16.4083 13.6644 16.6483 10.6244C16.855 7.99968 15.4621 6.11039 15.0745 5.61869C15.0236 5.52471 14.9516 5.3685 14.9259 5.16616C14.8533 4.5985 15.2335 4.36252 15.1516 3.9162C15.0888 3.57401 14.7837 3.26544 14.467 3.19728L14.4665 3.19823Z" fill="#FFC931"/>
<path d="M12.6185 13.9258C12.8997 14.0881 13.2594 13.9918 13.4218 13.7105C13.5842 13.4292 13.4878 13.0696 13.2065 12.9072C12.9253 12.7448 12.5656 12.8412 12.4032 13.1224C12.2408 13.4037 12.3372 13.7634 12.6185 13.9258Z" fill="#FDF4B1"/>
<path d="M10.973 14.9919C11.1583 15.0988 11.3951 15.0354 11.5021 14.8501C11.609 14.6649 11.5455 14.428 11.3603 14.3211C11.1751 14.2141 10.9382 14.2776 10.8313 14.4628C10.7243 14.6481 10.7878 14.8849 10.973 14.9919Z" fill="#FDF4B1"/>
<path d="M9.15695 14.7207C9.39152 14.8562 9.69146 14.7758 9.82688 14.5412C9.96231 14.3067 9.88194 14.0067 9.64737 13.8713C9.41281 13.7359 9.11287 13.8163 8.97745 14.0508C8.84202 14.2854 8.92239 14.5853 9.15695 14.7207Z" fill="#FDF4B1"/>
<path d="M8.57776 16.0614C8.80042 15.825 8.78924 15.4528 8.5528 15.2301C8.31635 15.0075 7.94418 15.0187 7.72152 15.2551C7.49886 15.4916 7.51004 15.8637 7.74648 16.0864C7.98293 16.309 8.3551 16.2979 8.57776 16.0614Z" fill="#FDF4B1"/>
<path d="M6.57938 6.92482C6.51337 6.84934 5.56377 7.35196 4.9331 8.28195C4.58632 8.79372 4.41928 9.31234 4.33564 9.7271C4.3227 9.7912 4.4087 9.82438 4.44229 9.7684C4.66023 9.40078 4.96116 8.93222 5.35219 8.41623C6.09714 7.43313 6.6334 6.98705 6.57958 6.92557L6.57938 6.92482Z" fill="#FDF4B1"/>
<path d="M8.146 10.3739C8.08589 10.3803 8.1113 10.604 7.99268 10.9752C7.87909 11.3321 7.7451 11.472 7.77724 11.4975C7.82931 11.539 8.28008 11.2519 8.31052 10.835C8.32783 10.5998 8.20836 10.3668 8.1458 10.3731L8.146 10.3739Z" fill="#FDF4B1"/>
<path d="M8.33543 5.26502C8.32009 5.24223 8.02602 5.36319 7.78715 5.61674C7.60782 5.80776 7.50054 6.03087 7.51892 6.04401C7.53283 6.05394 7.61463 5.94408 7.78648 5.76711C8.12231 5.42132 8.34943 5.28577 8.33571 5.26455L8.33543 5.26502Z" fill="#FDF4B1"/>
</svg>
