<svg width="14" height="18" viewBox="0 0 14 18" fill="none" xmlns="http://www.w3.org/2000/svg">
<path d="M7.03917 0H7.03878C6.86635 0 6.72656 0.139785 6.72656 0.312218V5.29002C6.72656 5.46245 6.86635 5.60223 7.03878 5.60223H7.03917C7.21161 5.60223 7.35139 5.46245 7.35139 5.29002V0.312218C7.35139 0.139785 7.21161 0 7.03917 0Z" fill="#00A651"/>
<path d="M7.10621 1.88753C7.02954 1.8427 7.01538 1.73771 7.07751 1.6744C7.48489 1.25758 8.30397 0.550965 9.55048 0.201784C10.7911 -0.145825 11.8811 0.0209015 12.5755 0.216333C12.92 0.313065 13.0509 0.731847 12.8217 1.00632C12.4548 1.44515 11.8634 1.98937 10.9964 2.30985C9.21152 2.97007 7.61268 2.18244 7.10621 1.88753Z" fill="#00A651"/>
<circle cx="7" cy="11" r="7" fill="#FF8E23"/>
</svg>
