<svg width="17" height="21" viewBox="0 0 17 21" fill="none" xmlns="http://www.w3.org/2000/svg">
<path d="M3.39213 5.35535C2.62773 7.40045 2.29587 9.17084 2.13792 10.4547C1.82457 13.0179 1.40137 16.4687 3.36835 18.0171C3.49131 18.1147 3.97645 18.4809 4.72555 18.65C8.0333 19.4004 11.3408 15.1679 12.2989 13.9414C13.0639 12.9627 14.1239 11.3755 14.9163 9.11755C11.0744 7.86378 7.23247 6.61002 3.3909 5.35502L3.39213 5.35535Z" fill="#EC008C"/>
<path d="M10.4258 4.2564C10.3361 4.46328 10.0801 4.5372 9.89614 4.4061C9.38834 4.0457 8.56969 3.59938 7.50101 3.51492C6.11092 3.40373 4.30857 3.90521 3.39184 5.35658C3.1425 5.75031 3.00229 6.14557 2.9233 6.48466C2.86264 6.74552 3.10146 6.9771 3.36141 6.90819C4.06644 6.7197 4.7727 6.53154 5.4774 6.34427C5.64913 6.29924 5.82761 6.38665 5.89597 6.55012C6.20693 7.2906 6.51665 8.03075 6.82728 8.77247C6.91406 8.98046 7.16973 9.05557 7.35553 8.92853C7.96986 8.50723 8.58263 8.08684 9.19696 7.66555C9.39903 7.52703 9.67651 7.62909 9.74117 7.86547L9.96817 8.7075C10.0188 8.89789 10.2157 9.01003 10.4055 8.95664C10.8317 8.83859 11.2579 8.72054 11.6838 8.60372C11.8633 8.55418 12.0496 8.65162 12.1126 8.82551C12.2027 9.0753 12.2928 9.3251 12.3829 9.57489C12.4585 9.78517 12.7077 9.87439 12.8998 9.75828L13.5417 9.37208C13.7526 9.24515 14.0251 9.36568 14.0727 9.60672L14.1377 9.9303C14.2055 10.2731 14.6747 10.3196 14.8134 9.99917C14.9404 9.70727 14.9892 9.45641 15.0074 9.27522C15.1731 7.75062 13.8668 6.05594 11.6802 5.14013C11.5211 5.07377 11.435 4.90288 11.4733 4.73502C11.6576 3.92928 11.8406 3.12321 12.0245 2.31871C12.0472 2.21922 12.031 2.11197 11.9665 2.03266C11.9229 1.97875 11.8642 1.93664 11.7978 1.91357C11.6742 1.87253 11.5359 1.90143 11.4352 1.98662C11.3975 2.01876 11.3687 2.06249 11.35 2.10763C11.042 2.82347 10.7341 3.53932 10.4249 4.25484L10.4258 4.2564Z" fill="#00A651"/>
<path d="M4.51577 8.91327C4.70684 8.96447 4.94341 8.70115 5.04417 8.32512C5.14493 7.9491 5.07171 7.60276 4.88064 7.55156C4.68956 7.50037 4.45299 7.76369 4.35223 8.13972C4.25148 8.51574 4.32469 8.86208 4.51577 8.91327Z" fill="#FFF200"/>
<path d="M5.88642 10.0076C5.80526 10.3104 5.61493 10.5234 5.46103 10.4821C5.30713 10.4409 5.24876 10.1613 5.32992 9.85844C5.41107 9.55557 5.6014 9.34265 5.7553 9.38388C5.9092 9.42512 5.96757 9.70468 5.88642 10.0076Z" fill="#FFF200"/>
<path d="M6.47304 12.1783C6.607 12.2142 6.77275 12.03 6.84326 11.7669C6.91377 11.5037 6.86234 11.2613 6.72839 11.2254C6.59443 11.1895 6.42868 11.3737 6.35817 11.6369C6.28766 11.9 6.33909 12.1424 6.47304 12.1783Z" fill="#FFF200"/>
<path d="M8.36407 10.6253C8.50619 10.6634 8.6821 10.4677 8.75698 10.1882C8.83187 9.90876 8.77737 9.65134 8.63525 9.61326C8.49314 9.57518 8.31722 9.77087 8.24234 10.0503C8.16746 10.3298 8.22196 10.5872 8.36407 10.6253Z" fill="#FFF200"/>
<path d="M8.52627 12.7286C8.66022 12.7645 8.82597 12.5803 8.89649 12.3171C8.967 12.054 8.91556 11.8116 8.78161 11.7757C8.64765 11.7398 8.4819 11.924 8.41139 12.1872C8.34088 12.4503 8.39231 12.6927 8.52627 12.7286Z" fill="#FFF200"/>
<path d="M11.1217 12.4699C11.3128 12.5211 11.5494 12.2578 11.6501 11.8818C11.7509 11.5057 11.6777 11.1594 11.4866 11.1082C11.2955 11.057 11.0589 11.3203 10.9582 11.6964C10.8574 12.0724 10.9307 12.4187 11.1217 12.4699Z" fill="#FFF200"/>
<path d="M3.6961 12.3277C3.83822 12.3658 4.01413 12.1701 4.08901 11.8906C4.1639 11.6112 4.1094 11.3537 3.96728 11.3157C3.82517 11.2776 3.64926 11.4733 3.57437 11.7527C3.49949 12.0322 3.55399 12.2896 3.6961 12.3277Z" fill="#FFF200"/>
<path d="M4.77138 15.0465C4.90534 15.0824 5.07109 14.8982 5.1416 14.635C5.21211 14.3719 5.16068 14.1294 5.02673 14.0936C4.89277 14.0577 4.72702 14.2419 4.65651 14.505C4.586 14.7682 4.63743 15.0106 4.77138 15.0465Z" fill="#FFF200"/>
<path d="M8.0751 15.1229C8.21518 15.1604 8.3887 14.967 8.46267 14.691C8.53664 14.4149 8.48306 14.1607 8.34298 14.1231C8.20291 14.0856 8.02939 14.279 7.95542 14.555C7.88144 14.8311 7.93503 15.0853 8.0751 15.1229Z" fill="#FFF200"/>
<path d="M3.91371 17.2818C4.08847 17.3286 4.30487 17.0877 4.39706 16.7436C4.48925 16.3995 4.42233 16.0827 4.24757 16.0358C4.07282 15.989 3.85642 16.23 3.76422 16.574C3.67203 16.9181 3.73896 17.235 3.91371 17.2818Z" fill="#FFF200"/>
<path d="M5.90274 16.5862C6.03398 16.6214 6.19664 16.4399 6.26606 16.1808C6.33547 15.9217 6.28536 15.6832 6.15413 15.648C6.02289 15.6129 5.86023 15.7944 5.79081 16.0534C5.72139 16.3125 5.77151 16.551 5.90274 16.5862Z" fill="#FFF200"/>
</svg>
